PathFileType	4	(X/Y/Z)	C:\Users\°ÂÌØÂü\Desktop\20210112\bx_y_10_501-Unnamed.trc
DataRate	CameraRate	NumFrames	NumMarkers	Units	OrigDataRate	OrigDataStartFrame	OrigNumFrames
50.00	50.00	       4	0	mm	50.00	403	       537
Frame#	Time	
		

403	8.040	-344.65262	-54.72652	1109.23486				-768.87927	217.03169	799.88586	-808.40955	74.26213	563.59161				-766.00238	-8.44599	795.71631	-927.88129	92.05622	1102.60779	-861.79248	-59.87020	702.92560	-843.53192	-70.20293	857.37817	-832.20947	286.58298	862.08539	-769.25031	13.21546	524.75775	-841.60535	249.42096	561.35004	-862.25702	259.61353	481.76501	-777.39197	209.34373	534.07678	-728.34155	71.81069	222.28978	-663.59821	-67.78323	161.76324	-721.50464	158.69525	223.63051	-776.64880	227.89267	201.29532	-882.48285	296.02121	144.62585	-677.30853	52.16538	163.30377	-604.89954	19.37401	166.78075	-677.60449	176.57251	162.86082	-597.29272	222.80858	173.40779	-666.03601	300.21231	158.69856	-628.20129	306.98911	160.83369	-562.69922	259.45355	164.41383	-527.94189	304.08762	146.40671	-125.53687	99.34915	1263.85913				-863.83923	288.96854	730.60608	-518.03314	-72.39765	143.02029	-563.01404	-38.20764	162.92375	-799.72668	177.57259	181.69235	-796.78839	51.08057	174.04016				-852.96295	-42.30566	469.29666	-772.38721	-12.24333	202.14819	-876.05621	-78.49118	141.57738	-831.50281	-34.63271	606.06049	-830.19617	-31.36973	556.62518	-622.74646	-79.39706	157.00787	
404	8.060	-344.16086	-54.26212	1109.73779	-346.93631	254.73378	1119.54468				-807.71704	74.02393	564.04474				-765.14032	-8.96888	796.27216	-927.01990	91.98640	1102.52368	-860.56281	-60.50056	703.16986	-842.70435	-70.23419	857.89880	-831.86517	286.58459	862.57123	-768.72797	13.15759	524.38641	-841.28534	249.18275	561.44537	-861.66791	259.75882	482.35416	-776.85614	209.05408	534.26917	-728.47937	71.42912	222.29683	-663.61108	-67.88523	161.66043	-721.50464	158.69525	223.63051	-776.78528	227.88083	201.23813	-882.45801	296.14471	144.76691	-677.42377	52.25962	163.40402	-604.92432	19.22170	166.99768	-677.71246	176.38640	163.18005	-597.34528	222.80798	173.56729	-666.08093	300.24060	158.92636	-628.22748	307.04117	160.87016	-562.55835	259.40854	164.47243	-528.07892	303.96722	146.22391	-125.65031	99.48782	1266.53284				-863.19489	288.93399	730.94690	-518.00818	-72.30843	142.76312	-562.95642	-38.14915	163.08966	-799.68274	177.56758	181.94885	-796.87280	50.98826	173.95525				-852.66895	-42.36745	469.26556	-772.59363	-12.36535	202.05122	-876.18079	-78.60561	141.78276	-830.73584	-34.87120	606.26129	-829.33844	-31.68303	557.04218	-622.62701	-79.43646	157.22090	
405	8.080				-346.73209	254.70045	1121.80615	-767.35211	217.02098	800.82861	-807.71704	74.02393	564.04474				-764.93530	-8.88964	796.21906	-926.67261	91.78771	1102.49011	-860.03870	-60.21568	702.73706	-841.65979	-70.31464	857.61584	-831.30829	286.57455	862.87708	-768.40869	13.10302	524.26971	-841.01752	249.32278	561.71826	-861.51050	259.87866	482.46741	-776.44470	209.14893	534.31824	-728.57544	71.83669	222.23007	-663.53571	-67.81977	161.67044	-721.50464	158.69525	223.63051	-776.52472	228.06161	201.49036	-882.48285	296.02121	144.62585	-677.44391	52.33009	163.33904	-604.92432	19.22170	166.99768	-677.71246	176.38640	163.18005	-597.35767	222.63431	173.30557	-666.13123	300.26730	158.65344	-628.22748	307.04117	160.87016	-562.66095	259.40085	164.38280	-528.05286	303.85477	146.38753	-125.95924	99.17716	1269.61438				-862.44769	288.94022	731.19885	-518.07434	-72.39948	142.80666	-563.01947	-38.13859	163.00203	-799.60956	177.60944	181.91844	-796.83490	51.12059	173.65993				-851.85907	-42.38211	468.86172	-772.53796	-12.00117	201.78133	-876.02838	-78.54763	141.55200	-830.29315	-35.01900	606.07373	-828.99170	-31.22566	556.67383	-622.71594	-79.39250	157.09021	
406	8.100	-342.31061	-54.14563	1112.26294	-346.72720	254.87485	1123.96472	-767.05627	216.91783	800.62238	-807.40649	74.74101	564.52783				-764.53003	-8.97821	796.31970	-926.51654	91.58124	1102.33765	-859.85077	-60.24286	702.68597	-841.36047	-70.57727	857.88208	-831.14734	286.37552	862.96667	-768.07672	13.06360	524.28754	-841.00592	249.23885	561.80469	-861.51324	259.82678	482.50931	-776.18701	209.33214	534.37732	-728.19598	71.96161	222.15594	-663.54913	-67.93898	161.73868	-721.50464	158.69525	223.63051	-776.79974	228.08330	201.18204	-882.82568	295.72977	144.46260	-677.26569	52.58385	163.11603	-604.84668	19.27232	166.92108	-677.60449	176.57251	162.86082	-597.36371	222.95132	173.41139	-666.03601	300.21231	158.69856	-628.10760	306.96631	161.16687	-562.60132	259.37399	164.48833	-528.02429	303.98843	146.31851	-126.75827	98.91117	1273.25232				-861.95758	288.68066	731.33307	-518.09784	-72.49019	142.94211	-563.05499	-38.26398	162.46112	-799.70422	177.61382	181.76740	-796.86346	51.05426	173.62599				-851.72821	-42.33861	468.78320	-772.37915	-12.04301	201.97281	-876.13446	-78.66106	141.72231	-830.22211	-34.86073	605.95544	-828.92303	-31.29480	556.69690	-622.74225	-79.24908	156.91812	
